<svg width="154" height="50" viewBox="0 0 154 50" fill="none" xmlns="http://www.w3.org/2000/svg"><path d="M65.403 30.09h-2.74V18.12h2.576v1.958c.547-.833 1.166-1.44 1.856-1.818.699-.387 1.52-.581 2.462-.581.935 0 1.71.198 2.324.593.614.388 1.081.981 1.401 1.78.631-.824 1.3-1.426 2.008-1.805.715-.379 1.527-.568 2.436-.568.792 0 1.482.147 2.071.442.59.286 1.048.707 1.376 1.263.152.26.261.572.329.934.075.362.113.88.113 1.553v8.22h-2.74v-6.15c0-1.607-.172-2.664-.517-3.169-.337-.513-.943-.77-1.818-.77-1.078 0-1.848.345-2.311 1.036-.454.681-.682 1.88-.682 3.598v5.454h-2.765v-6.148c0-1.482-.18-2.509-.543-3.081-.353-.573-.968-.859-1.843-.859-.539 0-1.031.122-1.478.366-.446.245-.8.581-1.06 1.01a2.87 2.87 0 00-.354 1.023c-.067.404-.1 1.15-.1 2.235v5.454zm31.149 0h-2.74v-1.553c-.488.69-1.06 1.204-1.717 1.54-.648.337-1.393.506-2.235.506-1.692 0-3.026-.577-4.002-1.73-.968-1.162-1.452-2.748-1.452-4.76 0-1.91.496-3.451 1.49-4.621.993-1.178 2.289-1.768 3.888-1.768.977 0 1.81.206 2.5.619a3.546 3.546 0 011.528 1.755v-1.957h2.74v11.97zm-2.664-6.022c0-1.238-.29-2.201-.871-2.892-.573-.69-1.377-1.035-2.412-1.035s-1.852.358-2.45 1.073c-.589.707-.883 1.692-.883 2.955 0 1.27.286 2.252.858 2.942.573.69 1.38 1.035 2.425 1.035.984 0 1.784-.375 2.398-1.124.623-.749.935-1.734.935-2.954zm15.05 0c0-1.238-.29-2.201-.871-2.892-.573-.69-1.376-1.035-2.412-1.035-1.035 0-1.852.358-2.449 1.073-.589.707-.884 1.692-.884 2.955 0 1.27.286 2.252.859 2.942.572.69 1.38 1.035 2.424 1.035.985 0 1.784-.375 2.399-1.124.623-.749.934-1.734.934-2.954zm2.664 5.277c0 2.34-.467 3.986-1.401 4.937-.935.96-2.509 1.44-4.723 1.44-1.649 0-2.967-.35-3.951-1.048-.985-.69-1.486-1.612-1.503-2.765l2.942-.013c.042.513.282.905.72 1.174.437.27 1.052.404 1.843.404 1.17 0 2.012-.256 2.525-.77.514-.513.775-1.372.783-2.576l.025-1.59c-.488.69-1.06 1.203-1.717 1.54-.648.337-1.393.505-2.235.505-1.692 0-3.026-.577-4.002-1.73-.968-1.162-1.452-2.748-1.452-4.76 0-1.91.496-3.451 1.49-4.621.993-1.178 2.289-1.768 3.889-1.768.976 0 1.809.206 2.499.619a3.545 3.545 0 011.528 1.755v-1.957h2.74v11.225zm15.24 1.465l-2.765-6.224c-.211-.48-.383-.905-.518-1.276a23.507 23.507 0 01-.366-1.11 72.77 72.77 0 01-.493 1.413c-.143.387-.256.678-.341.872l-2.84 6.325-6.2-12.69h2.917l2.689 5.771c.11.244.215.58.316 1.01.109.421.202.888.278 1.402.008-.303.059-.62.151-.947.093-.329.248-.733.467-1.212l2.93-6.465h.227l2.98 6.465c.185.404.319.778.404 1.123.092.345.147.69.164 1.036.075-.455.172-.884.29-1.288s.253-.77.404-1.099l2.639-5.795h2.891l-6.224 12.69zm19.204-.72h-2.74v-1.553c-.488.69-1.061 1.204-1.717 1.54-.648.337-1.393.506-2.235.506-1.692 0-3.026-.577-4.002-1.73-.968-1.162-1.452-2.748-1.452-4.76 0-1.91.496-3.451 1.49-4.621.993-1.178 2.289-1.768 3.888-1.768.977 0 1.81.206 2.5.619a3.545 3.545 0 011.528 1.755v-1.957h2.74v11.97zm-2.664-6.022c0-1.238-.291-2.201-.871-2.892-.573-.69-1.377-1.035-2.412-1.035s-1.852.358-2.449 1.073c-.59.707-.884 1.692-.884 2.955 0 1.27.286 2.252.858 2.942.573.69 1.381 1.035 2.425 1.035.984 0 1.784-.375 2.399-1.124.622-.749.934-1.734.934-2.954zm6.212-11.124c0-.463.168-.863.505-1.2a1.694 1.694 0 011.225-.504c.488 0 .892.164 1.212.492.328.32.492.724.492 1.212s-.164.9-.492 1.238a1.65 1.65 0 01-1.212.492c-.472 0-.88-.168-1.225-.505a1.694 1.694 0 01-.505-1.225zm.366 17.146V18.12h2.74v11.97h-2.74zM35.079 32.15c1.204-2.443 2.547-5.165 3.718-7.537l-.003-.002-14.165-1.383a3.394 3.394 0 01-2.193-1.222 3.555 3.555 0 01-.077-2.41l4.893-13.42c-7.51-.013-15.007-.051-15.99-.084-1.002-.033-3.451-.037-4.194 1.53-.586 1.664-.005 2.907 2.498 4.514.272.165.542.325.808.484 1.65.979 3.175 1.884 4.107 3.467 1.016 1.726-.44 3.24-.932 3.614l-7.483 4.677a2.115 2.115 0 002.242 3.586l7.072-4.42a244.5 244.5 0 002.664 4.432l-2.875 1.797a2.115 2.115 0 102.242 3.587l2.531-1.583.003.005c5.364-3.35 5.67 3.63 5.759 6.178.09 2.549 1.432 3.829 2.45 3.92 1.314.13 2.403-.62 3.522-2.844.293-.58 1.706-3.446 3.392-6.865l.002-.004.009-.018z" fill="#fff"/><path d="M32.299 6.409a2.12 2.12 0 01.622-.23c3.486-.002 6.572-.013 8.486-.036 6.685-.08 4.447 4.363 3.717 5.813l-3.62 7.203-.364.728a2.426 2.426 0 01-1.54.756s-5.34-.462-9.119-.867l-.64-.066c-1.382-.141-2.109-.215-2.432-.733-.377-.603.166-2.122.461-2.945l.098-.277c.192-.492.356-.92.51-1.32.685-1.782 1.167-3.033 2.89-6.963.179-.45.508-.826.93-1.063zm16.586 9.776a1.645 1.645 0 11-2.79 1.744 1.645 1.645 0 012.79-1.744zM11.672 34.451c.619.99.318 2.295-.672 2.914l-1.196.747a2.115 2.115 0 01-2.242-3.586l1.196-.748a2.115 2.115 0 012.914.673z" fill="#fff"/><path d="M15.407 1.01s-7.635.056-8.337.138c-1.349.155-4.345.815-5.578 3.288-1.68 3.368 1.483 8.14 1.483 8.14l3.976 6.358" stroke="#BFECFF" stroke-width="1.5" stroke-linecap="round"/><path d="M51.189 11.327s2.462-3.857.498-7.068C49.721 1.049 44.123 1 44.123 1l-20.818.112" stroke="#FE60B7" stroke-width="1.5" stroke-linecap="round"/><path d="M18.613 37.916s4.107 6.613 4.31 6.898c.563.794 2.933 3.76 6.107 3.456 3.747-.359 6.12-5.569 6.12-5.569l9.859-19.737" stroke="#A072FD" stroke-width="1.5" stroke-linecap="round"/></svg>